PathFileType	4	(X/Y/Z)	D:\TRACE\spotREDO_2-26-24\spot_justBody_Motion_3_2-platform.trc
DataRate	CameraRate	NumFrames	NumMarkers	Units	OrigDataRate	OrigDataStartFrame	OrigNumFrames
100.00	100.00	      43	5	mm	100.00	876	      7000
Frame#	Time	Left_Front			Right_Front			Left_Aft			Right_Aft			Post			
		X1	Y1	Z1	X2	Y2	Z2	X3	Y3	Z3	X4	Y4	Z4	X5	Y5	Z5	

876	8.750	-681.96912	-14.90323	-578.44531	732.97388	-4.73974	-494.01797	-753.49738	15.74624	639.78198	816.62567	23.49117	643.80939	27.29475	604.44189	-996.74463	
877	8.760	-682.17194	-14.66688	-578.31689	732.65375	-4.36649	-493.80145	-753.66223	15.35297	639.96893	816.27100	22.92973	643.76068	27.06345	605.09955	-996.26666	
878	8.770	-682.30566	-14.40915	-578.23792	732.45697	-4.13445	-493.69925	-754.02991	14.81701	640.13538	816.19391	22.62457	643.78644	27.15535	605.62628	-995.74304	
879	8.780	-682.59607	-13.90817	-578.13727	732.08588	-3.74551	-493.64874	-754.18597	14.46857	640.30145	816.20709	22.01200	643.48737	26.84349	606.33594	-995.26923	
880	8.790	-682.95319	-13.43891	-578.15088	731.86029	-3.34008	-493.59879	-754.45789	14.01448	640.46405	815.90765	21.87949	644.11481	26.74791	606.92773	-994.94867	
881	8.800	-683.25049	-13.13966	-578.04144	731.73096	-3.04418	-493.49658	-754.59198	13.73554	640.66846	815.78381	21.42707	644.38379	26.19800	607.52448	-994.58533	
882	8.810	-683.27704	-12.78678	-577.89233	731.55084	-2.67165	-493.45685	-754.59314	13.57003	640.74878	815.73193	21.27326	644.46906	25.90172	608.22858	-994.10522	
883	8.820	-683.55701	-12.39172	-577.78790	731.20837	-2.15045	-493.45142	-754.87622	13.21581	640.76514	815.50861	20.94634	644.52478	26.08051	608.94092	-993.40601	
884	8.830	-683.59186	-12.16135	-577.72504	731.20142	-1.89569	-493.39255	-754.92578	12.83086	640.86139	815.25165	20.19954	644.30273	25.89607	609.29858	-992.89758	
885	8.840	-683.64392	-11.79430	-577.76227	731.04816	-1.55350	-493.23785	-755.27271	12.27077	640.88513	815.21490	19.87066	644.66351	25.63190	609.94012	-992.30688	
886	8.850	-683.84894	-11.32399	-577.65826	730.96143	-1.45215	-493.03049	-755.36127	11.80947	641.05353	814.83624	19.53422	644.81879	25.21448	610.78778	-991.77502	
887	8.860	-684.00464	-10.85157	-577.57062	730.83832	-1.16490	-492.89200	-755.39783	11.41261	641.16766	814.65790	19.21021	644.92780	25.10350	611.30463	-991.25861	
888	8.870	-684.25690	-10.44688	-577.46619	730.54132	-0.73539	-492.92267	-755.56421	11.14992	641.14844	814.49066	18.95042	644.96411	24.93787	611.80750	-991.07928	
889	8.880	-684.42755	-10.21283	-577.34607	730.51672	-0.43283	-492.78778	-755.71722	10.78010	641.27008	814.38037	18.27216	644.79126	25.08009	612.41907	-990.47046	
890	8.890	-684.48621	-9.95356	-577.24121	730.33075	-0.17235	-492.73026	-755.93243	10.46284	641.37103	814.40039	18.16355	645.14795	24.93855	613.22321	-990.01697	
891	8.900	-684.60358	-9.60664	-577.20367	730.24969	-0.02800	-492.60831	-755.96155	9.95968	641.52490	814.15564	17.76337	645.20294	24.66479	613.73651	-989.79565	
892	8.910	-684.80786	-9.12411	-577.11987	730.11542	0.25409	-492.46213	-756.08142	9.41033	641.69946	813.95776	17.23048	645.30621	24.59117	614.43854	-989.38873	
893	8.920	-684.92468	-8.73050	-576.81567	729.92352	0.86761	-492.31723	-756.19751	9.06041	641.82111	813.62097	16.72162	645.47974	24.50956	615.07013	-989.05579	
894	8.930	-685.11407	-8.33622	-576.72723	729.75586	1.17665	-492.27176	-756.41022	8.76505	642.00201	814.48950	15.48726	644.82910	24.25201	615.68048	-988.39813	
895	8.940	-685.20795	-7.99775	-576.73083	729.60217	1.48960	-492.36832	-756.62170	8.57678	642.09277	813.94147	15.69999	645.12860	24.13580	616.39514	-987.72314	
896	8.950	-685.35071	-7.64674	-576.66382	729.49585	1.76932	-492.18423	-756.92151	8.01696	642.02295	813.61877	15.77025	645.61853	24.02859	616.88934	-987.00836	
897	8.960	-685.44763	-7.28530	-576.53351	729.32874	2.36677	-492.07053	-756.96106	7.76551	642.21533	813.37476	15.48832	645.76526	23.73170	617.50275	-986.70380	
898	8.970	-685.62665	-6.89669	-576.46564	729.42828	2.59612	-491.85886	-757.05750	7.70501	642.25732	813.33685	14.85659	645.56238	23.75228	618.11487	-986.17255	
899	8.980	-685.76959	-6.48365	-576.36395	729.26984	2.75860	-491.76526	-757.08405	7.20974	642.44617	813.14044	14.61122	646.00342	23.56835	618.93988	-985.51819	
900	8.990	-685.82031	-6.22096	-576.33838	729.18817	2.96158	-491.68292	-756.91461	6.39674	642.57715	812.97113	14.15257	646.08691	23.47579	619.40332	-984.96674	
901	9.000	-686.05658	-5.81169	-576.28082	729.08978	3.15262	-491.58096	-757.10687	5.99216	642.46747	813.07452	13.88668	646.15625	23.55976	619.91101	-984.67273	
902	9.010	-686.17859	-5.41616	-576.20117	728.83179	3.60811	-491.60425	-757.28320	5.66659	642.60046	812.99976	13.54046	646.28790	23.66142	620.68781	-984.36176	
903	9.020	-686.12305	-5.19893	-576.08850	728.78156	4.06628	-491.41290	-757.34155	5.41703	642.70410	812.88733	12.84632	646.08301	23.38097	621.34253	-983.95453	
904	9.030	-686.04852	-4.75076	-575.96405	728.77466	4.42422	-491.41769	-757.40796	5.28766	642.74316	812.69391	12.75616	646.54321	23.31048	621.79077	-983.64850	
905	9.040	-686.02191	-4.32419	-575.81708	728.74451	4.53785	-491.30383	-757.40521	5.23679	642.86829	812.68353	12.56394	646.63037	23.07461	622.26758	-983.28058	
906	9.050	-686.02179	-3.93918	-575.68744	728.77490	4.78195	-491.24487	-757.43329	4.30780	643.02673	812.49438	12.03360	646.78699	23.28980	623.04999	-982.54401	
907	9.060	-686.04443	-3.61664	-575.60736	728.74353	5.14556	-491.13589	-757.38696	3.92662	643.16919	812.63843	11.49258	646.90167	23.49924	623.48993	-982.12439	
908	9.070	-686.02490	-3.41905	-575.51520	728.68011	5.49518	-490.99982	-757.61755	3.28229	643.27875	812.60852	11.13045	646.98853	23.12280	624.09613	-981.63770	
909	9.080	-686.20807	-3.01541	-575.45374	728.63159	5.79012	-490.77682	-757.64514	3.11366	643.35040	812.56268	10.94447	647.08130	22.61563	624.84882	-981.36292	
910	9.090	-686.28888	-2.71492	-575.42078	728.46295	6.21511	-490.79037	-757.65857	3.02501	643.38489	812.70221	10.78367	647.27069	22.84693	625.49915	-980.68311	
911	9.100	-686.37781	-2.32734	-575.27606	728.50555	6.33181	-490.66217	-757.64038	2.71593	643.47229	812.61841	9.98107	647.03979	23.18414	625.92242	-980.06573	
912	9.110	-686.39124	-1.93788	-575.23895	728.43860	6.48737	-490.63882	-757.67145	2.41040	643.46533	812.45819	9.73729	647.42737	23.21170	626.50702	-979.56061	
913	9.120	-686.38251	-1.63295	-575.12915	728.39270	6.79572	-490.65942	-757.69061	2.06501	643.52814	812.35199	9.47382	647.52496	22.70148	627.05157	-979.02887	
914	9.130	-686.40790	-1.21961	-575.03375	728.41699	6.91505	-490.65637	-757.69873	1.40612	643.68243	812.45349	9.24651	647.56586	22.78900	627.61407	-978.77679	
915	9.140	-686.28735	-0.91465	-574.91852	728.40228	7.34527	-490.56177	-757.64728	1.04947	643.84552	812.55652	8.55271	647.38965	22.96279	628.05817	-978.30450	
916	9.150	-686.20001	-0.77689	-574.83722	728.28302	7.74468	-490.47415	-757.67505	0.75289	643.96454	812.52429	8.26945	647.59021	22.93550	628.53748	-978.02899	
917	9.160	-686.17029	-0.53569	-574.77551	728.32611	7.99317	-490.28278	-757.72583	0.51976	643.92120	812.49359	8.15121	647.71509	23.06493	628.99890	-977.74036	
918	9.170	-686.28735	-0.26828	-574.64172	728.33258	8.32331	-490.19858	-757.72559	0.41409	644.04926	812.42474	8.01003	647.88800	22.91072	629.63159	-977.43347	
